<svg width="56" height="56" viewBox="0 0 56 56" fill="none" xmlns="http://www.w3.org/2000/svg">
<path d="M28 5.6875C24.7913 5.69074 21.6211 6.38598 18.7055 7.72582C15.7899 9.06566 13.1977 11.0186 11.1055 13.4513C9.01329 15.8841 7.47041 18.7395 6.58209 21.8228C5.69377 24.906 5.48089 28.1446 5.95799 31.3176C6.43509 34.4906 7.59093 37.5234 9.34668 40.2091C11.1024 42.8948 13.4168 45.1702 16.1319 46.8802C18.847 48.5901 21.8989 49.6944 25.0796 50.1176C28.2602 50.5408 31.4947 50.273 34.5625 49.3325C34.7672 49.2697 34.9534 49.1578 35.105 49.0066L49 35.1006C49.1515 34.9485 49.2635 34.7614 49.3259 34.5559C50.3487 31.2192 50.575 27.6891 49.9865 24.249C49.3981 20.809 48.0114 17.5548 45.9377 14.7476C43.864 11.9405 41.1611 9.65864 38.0459 8.08519C34.9307 6.51174 31.49 5.69054 28 5.6875ZM46.9153 33.4688L33.4797 46.9066C29.2888 48.1176 24.8144 47.901 20.7601 46.2908C16.7059 44.6807 13.302 41.7684 11.084 38.0121C8.86592 34.2558 7.95963 29.8687 8.50766 25.541C9.05569 21.2133 11.0269 17.1906 14.1113 14.1057C17.1956 11.0209 21.218 9.04897 25.5456 8.50023C29.8732 7.9515 34.2605 8.85708 38.0171 11.0745C41.7738 13.2919 44.6867 16.6953 46.2975 20.7493C47.9083 24.8033 48.1256 29.2777 46.9153 33.4688ZM17.9375 23.625C17.9375 23.1924 18.0658 22.7694 18.3061 22.4097C18.5465 22.05 18.8881 21.7696 19.2878 21.604C19.6876 21.4384 20.1274 21.3951 20.5517 21.4795C20.9761 21.5639 21.3658 21.7723 21.6718 22.0782C21.9777 22.3841 22.186 22.7739 22.2704 23.1982C22.3548 23.6226 22.3115 24.0624 22.146 24.4621C21.9804 24.8618 21.7 25.2035 21.3403 25.4438C20.9805 25.6842 20.5576 25.8125 20.125 25.8125C19.5448 25.8125 18.9884 25.582 18.5782 25.1718C18.1679 24.7616 17.9375 24.2052 17.9375 23.625ZM38.0625 23.625C38.0625 24.0576 37.9342 24.4806 37.6938 24.8403C37.4534 25.2 37.1118 25.4804 36.7121 25.646C36.3124 25.8116 35.8725 25.8549 35.4482 25.7705C35.0239 25.6861 34.6341 25.4777 34.3282 25.1718C34.0222 24.8659 33.8139 24.4761 33.7295 24.0518C33.6451 23.6274 33.6884 23.1876 33.854 22.7879C34.0195 22.3882 34.2999 22.0465 34.6597 21.8062C35.0194 21.5658 35.4423 21.4375 35.875 21.4375C36.4551 21.4375 37.0115 21.668 37.4218 22.0782C37.832 22.4884 38.0625 23.0448 38.0625 23.625ZM37.8853 33.9063C35.7153 37.66 32.1125 39.8125 28 39.8125C23.8875 39.8125 20.2847 37.66 18.1147 33.9063C17.9577 33.6063 17.9228 33.2573 18.0171 32.9322C18.1114 32.6071 18.3277 32.331 18.6208 32.1616C18.9139 31.9921 19.2611 31.9425 19.5899 32.0231C19.9187 32.1036 20.2037 32.3081 20.3853 32.5938C22.1003 35.5556 24.804 37.1875 28 37.1875C31.1959 37.1875 33.9062 35.5556 35.6147 32.5938C35.6967 32.4369 35.8096 32.2983 35.9467 32.1862C36.0837 32.0741 36.2419 31.9909 36.4119 31.9416C36.582 31.8923 36.7602 31.8779 36.9359 31.8992C37.1116 31.9205 37.2812 31.9772 37.4345 32.0658C37.5877 32.1544 37.7215 32.2731 37.8277 32.4147C37.9339 32.5563 38.0103 32.7179 38.0525 32.8899C38.0946 33.0618 38.1015 33.2405 38.0727 33.4151C38.044 33.5898 37.9802 33.7569 37.8853 33.9063Z" fill="#D9D9D9"/>
</svg>
