<svg width="16" height="16" viewBox="0 0 16 16" fill="none" xmlns="http://www.w3.org/2000/svg">
<path d="M6.88006 3.375C6.77746 3.27241 6.65064 3.19735 6.51134 3.15679C6.37204 3.11622 6.22475 3.11145 6.08312 3.14292C5.94148 3.17438 5.81008 3.24107 5.70106 3.33681C5.59204 3.43255 5.50893 3.55424 5.45943 3.69062L2.17818 12.7169C2.13104 12.8469 2.11581 12.9864 2.13379 13.1235C2.15177 13.2607 2.20243 13.3915 2.28151 13.505C2.36058 13.6185 2.46576 13.7114 2.58819 13.7758C2.71063 13.8401 2.84673 13.8742 2.98506 13.875C3.08676 13.8748 3.18765 13.8568 3.28318 13.8219L12.3069 10.5406C12.4431 10.4908 12.5645 10.4074 12.6599 10.2982C12.7553 10.1891 12.8216 10.0576 12.8527 9.91601C12.8839 9.77441 12.8788 9.62724 12.8381 9.48811C12.7973 9.34898 12.7221 9.22238 12.6194 9.12L6.88006 3.375ZM3.02693 13.1169C3.00686 13.1243 2.98509 13.1258 2.96418 13.1212C2.94328 13.1167 2.92413 13.1062 2.90899 13.0911C2.89386 13.0759 2.88339 13.0568 2.87881 13.0359C2.87424 13.015 2.87575 12.9932 2.88318 12.9731L3.83193 10.3625L5.63756 12.1675L3.02693 13.1169ZM6.41506 11.885L4.11506 9.58438L5.03193 7.0625L8.93756 10.9681L6.41506 11.885ZM12.1251 9.75438C12.1213 9.77295 12.1127 9.79023 12.1002 9.80448C12.0877 9.81873 12.0717 9.82947 12.0538 9.83562L9.71506 10.6875L5.31256 6.28438L6.16443 3.94937C6.17048 3.93138 6.18118 3.91531 6.19545 3.9028C6.20972 3.89028 6.22705 3.88177 6.24568 3.87812C6.25419 3.87701 6.2628 3.87701 6.27131 3.87812C6.28589 3.87806 6.30034 3.88096 6.31378 3.88665C6.32721 3.89235 6.33934 3.90072 6.34943 3.91125L12.0919 9.65375C12.1056 9.66627 12.1159 9.68211 12.1217 9.69973C12.1275 9.71735 12.1286 9.73617 12.1251 9.75438ZM10.1251 4.5C10.1339 4.18143 10.2113 3.8685 10.3519 3.5825C10.6607 2.965 11.2457 2.625 12.0001 2.625C12.4669 2.625 12.7832 2.45375 12.9676 2.10125C13.0611 1.91391 13.1148 1.70916 13.1251 1.5C13.1251 1.40054 13.1646 1.30516 13.2349 1.23483C13.3052 1.16451 13.4006 1.125 13.5001 1.125C13.5995 1.125 13.6949 1.16451 13.7652 1.23483C13.8355 1.30516 13.8751 1.40054 13.8751 1.5C13.8751 2.14875 13.4832 3.375 12.0001 3.375C11.5332 3.375 11.2169 3.54625 11.0326 3.89875C10.9387 4.08597 10.885 4.29079 10.8751 4.5C10.8751 4.59946 10.8355 4.69484 10.7652 4.76516C10.6949 4.83549 10.5995 4.875 10.5001 4.875C10.4006 4.875 10.3052 4.83549 10.2349 4.76516C10.1646 4.69484 10.1251 4.59946 10.1251 4.5ZM8.62506 2.5V1C8.62506 0.900544 8.66456 0.805161 8.73489 0.734835C8.80522 0.664509 8.9006 0.625 9.00006 0.625C9.09951 0.625 9.1949 0.664509 9.26522 0.734835C9.33555 0.805161 9.37506 0.900544 9.37506 1V2.5C9.37506 2.59946 9.33555 2.69484 9.26522 2.76517C9.1949 2.83549 9.09951 2.875 9.00006 2.875C8.9006 2.875 8.80522 2.83549 8.73489 2.76517C8.66456 2.69484 8.62506 2.59946 8.62506 2.5ZM14.7651 7.735C14.8019 7.76933 14.8315 7.81073 14.8519 7.85673C14.8724 7.90273 14.8835 7.95239 14.8844 8.00274C14.8852 8.05309 14.876 8.1031 14.8571 8.1498C14.8383 8.19649 14.8102 8.23891 14.7746 8.27452C14.739 8.31013 14.6965 8.3382 14.6499 8.35706C14.6032 8.37592 14.5531 8.38518 14.5028 8.3843C14.4524 8.38341 14.4028 8.37239 14.3568 8.35189C14.3108 8.33139 14.2694 8.30184 14.2351 8.265L13.2351 7.265C13.1688 7.19391 13.1328 7.09989 13.1345 7.00274C13.1362 6.90559 13.1755 6.8129 13.2442 6.74419C13.313 6.67548 13.4056 6.63613 13.5028 6.63441C13.5999 6.6327 13.694 6.66876 13.7651 6.735L14.7651 7.735ZM15.1188 4.85563L13.6188 5.35563C13.5718 5.37235 13.522 5.37953 13.4722 5.37675C13.4224 5.37398 13.3737 5.3613 13.3288 5.33946C13.284 5.31762 13.244 5.28707 13.2111 5.24957C13.1782 5.21208 13.1532 5.16841 13.1374 5.12111C13.1216 5.07381 13.1154 5.02383 13.1191 4.97411C13.1229 4.92439 13.1365 4.87591 13.1592 4.83152C13.1819 4.78713 13.2133 4.74771 13.2514 4.71558C13.2895 4.68344 13.3337 4.65924 13.3813 4.64437L14.8813 4.14437C14.975 4.11511 15.0765 4.12378 15.1639 4.1685C15.2513 4.21322 15.3177 4.29044 15.3488 4.38356C15.3799 4.47669 15.3732 4.57829 15.3302 4.66656C15.2872 4.75482 15.2113 4.8227 15.1188 4.85563Z" fill="#F8F8F8"/>
</svg>
