<svg width="32" height="32" viewBox="0 0 32 32" fill="none" xmlns="http://www.w3.org/2000/svg">
<path d="M27.2375 13.7624L17.2375 3.76238C17.075 3.59986 16.8821 3.47094 16.6697 3.38298C16.4574 3.29503 16.2298 3.24976 16 3.24976C15.7702 3.24976 15.5426 3.29503 15.3303 3.38298C15.1179 3.47094 14.925 3.59986 14.7625 3.76238L4.76251 13.7624C4.59956 13.9246 4.47037 14.1174 4.38241 14.3298C4.29444 14.5422 4.24944 14.77 4.25001 14.9999V26.9999C4.25001 27.1988 4.32902 27.3896 4.46968 27.5302C4.61033 27.6709 4.80109 27.7499 5.00001 27.7499H13C13.1989 27.7499 13.3897 27.6709 13.5303 27.5302C13.671 27.3896 13.75 27.1988 13.75 26.9999V19.7499H18.25V26.9999C18.25 27.1988 18.329 27.3896 18.4697 27.5302C18.6103 27.6709 18.8011 27.7499 19 27.7499H27C27.1989 27.7499 27.3897 27.6709 27.5303 27.5302C27.671 27.3896 27.75 27.1988 27.75 26.9999V14.9999C27.7506 14.77 27.7056 14.5422 27.6176 14.3298C27.5296 14.1174 27.4004 13.9246 27.2375 13.7624ZM26.25 26.2499H19.75V18.9999C19.75 18.801 19.671 18.6102 19.5303 18.4696C19.3897 18.3289 19.1989 18.2499 19 18.2499H13C12.8011 18.2499 12.6103 18.3289 12.4697 18.4696C12.329 18.6102 12.25 18.801 12.25 18.9999V26.2499H5.75001V14.9999C5.74981 14.967 5.75612 14.9344 5.76856 14.9039C5.781 14.8734 5.79934 14.8457 5.82251 14.8224L15.8225 4.82238C15.8457 4.79895 15.8734 4.78035 15.9039 4.76766C15.9343 4.75497 15.967 4.74843 16 4.74843C16.033 4.74843 16.0657 4.75497 16.0961 4.76766C16.1266 4.78035 16.1543 4.79895 16.1775 4.82238L26.1775 14.8224C26.2007 14.8457 26.219 14.8734 26.2314 14.9039C26.2439 14.9344 26.2502 14.967 26.25 14.9999V26.2499Z" fill="#474A57"/>
</svg>
