<svg width="32" height="32" viewBox="0 0 32 32" fill="none" xmlns="http://www.w3.org/2000/svg">
<path d="M16 10.2501C14.8628 10.2501 13.7511 10.5873 12.8055 11.2192C11.8599 11.851 11.1229 12.749 10.6877 13.7997C10.2525 14.8504 10.1386 16.0065 10.3605 17.1219C10.5824 18.2373 11.13 19.2618 11.9341 20.066C12.7383 20.8701 13.7628 21.4178 14.8782 21.6396C15.9936 21.8615 17.1498 21.7476 18.2004 21.3124C19.2511 20.8772 20.1491 20.1402 20.781 19.1946C21.4128 18.2491 21.75 17.1373 21.75 16.0001C21.748 14.4757 21.1416 13.0143 20.0637 11.9364C18.9858 10.8585 17.5244 10.2521 16 10.2501ZM16 20.2501C15.1594 20.2501 14.3377 20.0008 13.6388 19.5339C12.9399 19.0669 12.3952 18.4031 12.0735 17.6265C11.7518 16.8499 11.6677 15.9954 11.8317 15.171C11.9957 14.3466 12.4004 13.5893 12.9948 12.9949C13.5892 12.4005 14.3465 11.9958 15.1709 11.8318C15.9953 11.6678 16.8498 11.7519 17.6264 12.0736C18.403 12.3953 19.0668 12.94 19.5338 13.6389C20.0008 14.3378 20.25 15.1595 20.25 16.0001C20.25 17.1273 19.8022 18.2083 19.0052 19.0053C18.2082 19.8023 17.1272 20.2501 16 20.2501ZM29.5 13.4501C29.4783 13.3456 29.4344 13.2469 29.3715 13.1607C29.3086 13.0745 29.2279 13.0027 29.135 12.9501L25.33 10.7776L25.2775 10.6889L25.2625 6.40011C25.2625 6.29177 25.2391 6.18473 25.1937 6.08633C25.1484 5.98793 25.0823 5.90052 25 5.83011C23.6711 4.70645 22.1411 3.84498 20.4913 3.29136C20.3921 3.25801 20.287 3.24578 20.1828 3.25547C20.0786 3.26516 19.9776 3.29654 19.8863 3.34761L16.0575 5.48261H15.9325L12.1138 3.34511C12.022 3.29389 11.9205 3.26253 11.8159 3.25306C11.7112 3.24358 11.6057 3.2562 11.5063 3.29011C9.85653 3.84534 8.32732 4.70899 7.00001 5.83511C6.91739 5.90515 6.85092 5.99225 6.80517 6.09044C6.75943 6.18862 6.73549 6.29554 6.73501 6.40386L6.71501 10.6964C6.69751 10.7251 6.68001 10.7551 6.66376 10.7851L2.86376 12.9464C2.77037 12.9997 2.68955 13.0725 2.62679 13.1599C2.56403 13.2472 2.52079 13.3471 2.50001 13.4526C2.16626 15.1354 2.16626 16.8673 2.50001 18.5501C2.52176 18.6546 2.56557 18.7533 2.62851 18.8395C2.69146 18.9257 2.77209 18.9975 2.86501 19.0501L6.66751 21.2164L6.72001 21.3051L6.73501 25.5939C6.7344 25.7034 6.75781 25.8118 6.80359 25.9114C6.84938 26.0109 6.91642 26.0992 7.00001 26.1701C8.32892 27.2938 9.85887 28.1552 11.5088 28.7089C11.6079 28.7422 11.713 28.7544 11.8172 28.7447C11.9214 28.7351 12.0224 28.7037 12.1138 28.6526L15.94 26.5176H16.065L19.885 28.6551C19.9968 28.7169 20.1223 28.7496 20.25 28.7501C20.3321 28.7505 20.4137 28.7369 20.4913 28.7101C22.1388 28.1542 23.6658 27.2905 24.9913 26.1651C25.0739 26.0951 25.1403 26.008 25.1861 25.9098C25.2318 25.8116 25.2558 25.7047 25.2563 25.5964L25.2763 21.3039C25.2938 21.2751 25.3113 21.2451 25.3275 21.2151L29.13 19.0539C29.2236 19.0006 29.3047 18.9279 29.3677 18.8405C29.4307 18.7531 29.4741 18.6532 29.495 18.5476C29.8304 16.8652 29.8321 15.1332 29.5 13.4501ZM28.0938 17.9239L24.415 20.0126C24.2957 20.0809 24.1972 20.1802 24.13 20.3001C24.0563 20.4251 23.9788 20.5639 23.8975 20.6926C23.8235 20.8111 23.7842 20.9479 23.7838 21.0876L23.7638 25.2389C22.7295 26.0675 21.5677 26.7231 20.3238 27.1801L16.625 25.1101C16.5132 25.0472 16.3871 25.0141 16.2588 25.0139H16.2413C16.0863 25.0139 15.9288 25.0139 15.7738 25.0139C15.6396 25.0106 15.5071 25.0434 15.39 25.1089L11.6813 27.1789C10.4357 26.7241 9.27223 26.0702 8.23626 25.2426L8.22126 21.0964C8.22087 20.9567 8.18147 20.8199 8.10751 20.7014C8.02751 20.5764 7.94876 20.4414 7.87501 20.3089C7.8085 20.1889 7.71035 20.0894 7.59126 20.0214L3.91251 17.9251C3.69866 16.6511 3.69866 15.3504 3.91251 14.0764L7.58501 11.9876C7.70613 11.9201 7.80643 11.8206 7.87501 11.7001C7.94876 11.5751 8.02626 11.4364 8.10751 11.3076C8.18147 11.1891 8.22087 11.0523 8.22126 10.9126L8.24126 6.76136C9.27403 5.93319 10.434 5.27763 11.6763 4.82011L15.375 6.89011C15.4917 6.95665 15.6245 6.98953 15.7588 6.98511C15.9138 6.98511 16.0713 6.98511 16.2263 6.98511C16.3604 6.98833 16.4929 6.95552 16.61 6.89011L20.3163 4.82011C21.5618 5.27482 22.7253 5.92875 23.7613 6.75636L23.7763 10.9026C23.7767 11.0423 23.816 11.1791 23.89 11.2976C23.97 11.4226 24.0488 11.5576 24.1225 11.6901C24.189 11.8101 24.2872 11.9095 24.4063 11.9776L28.0875 14.0751C28.3026 15.3489 28.3039 16.6496 28.0913 17.9239H28.0938Z" fill="#474A57"/>
</svg>
