<svg width="16" height="16" viewBox="0 0 16 16" fill="none" xmlns="http://www.w3.org/2000/svg">
<path d="M14.692 11.8182L9.22574 2.32631C9.10019 2.11283 8.92107 1.93586 8.7061 1.81289C8.49113 1.68993 8.24777 1.62524 8.00012 1.62524C7.75246 1.62524 7.5091 1.68993 7.29413 1.81289C7.07916 1.93586 6.90004 2.11283 6.77449 2.32631L1.30824 11.8182C1.18792 12.0241 1.12451 12.2584 1.12451 12.4969C1.12451 12.7355 1.18792 12.9697 1.30824 13.1757C1.43211 13.3907 1.611 13.5688 1.82652 13.6917C2.04203 13.8146 2.2864 13.8779 2.53449 13.8751H13.4657C13.7136 13.8777 13.9577 13.8143 14.173 13.6914C14.3883 13.5684 14.567 13.3905 14.6907 13.1757C14.8113 12.9698 14.8749 12.7356 14.8751 12.4971C14.8753 12.2586 14.8121 12.0243 14.692 11.8182ZM14.0414 12.8001C13.983 12.9005 13.8988 12.9835 13.7977 13.0407C13.6965 13.0978 13.5819 13.1269 13.4657 13.1251H2.53449C2.41832 13.1269 2.30375 13.0978 2.20257 13.0407C2.1014 12.9835 2.01728 12.9005 1.95886 12.8001C1.90423 12.7082 1.87539 12.6032 1.87539 12.4963C1.87539 12.3894 1.90423 12.2845 1.95886 12.1926L7.42449 2.70068C7.48424 2.60142 7.56865 2.5193 7.66951 2.46229C7.77037 2.40528 7.88426 2.37532 8.00012 2.37532C8.11597 2.37532 8.22986 2.40528 8.33072 2.46229C8.43158 2.5193 8.51599 2.60142 8.57574 2.70068L14.042 12.1926C14.0965 12.2845 14.1253 12.3895 14.1252 12.4964C14.125 12.6033 14.0961 12.7082 14.0414 12.8001ZM7.62512 9.00006V6.50006C7.62512 6.4006 7.66462 6.30522 7.73495 6.23489C7.80528 6.16457 7.90066 6.12506 8.00012 6.12506C8.09957 6.12506 8.19495 6.16457 8.26528 6.23489C8.33561 6.30522 8.37512 6.4006 8.37512 6.50006V9.00006C8.37512 9.09951 8.33561 9.1949 8.26528 9.26522C8.19495 9.33555 8.09957 9.37506 8.00012 9.37506C7.90066 9.37506 7.80528 9.33555 7.73495 9.26522C7.66462 9.1949 7.62512 9.09951 7.62512 9.00006ZM8.62512 11.2501C8.62512 11.3737 8.58846 11.4945 8.51978 11.5973C8.45111 11.7001 8.3535 11.7802 8.23929 11.8275C8.12509 11.8748 7.99942 11.8872 7.87818 11.863C7.75695 11.8389 7.64558 11.7794 7.55817 11.692C7.47077 11.6046 7.41124 11.4932 7.38712 11.372C7.36301 11.2507 7.37539 11.1251 7.42269 11.0109C7.47 10.8967 7.5501 10.7991 7.65288 10.7304C7.75566 10.6617 7.8765 10.6251 8.00012 10.6251C8.16588 10.6251 8.32485 10.6909 8.44206 10.8081C8.55927 10.9253 8.62512 11.0843 8.62512 11.2501Z" fill="#F8F8F8"/>
</svg>
