<svg width="20" height="20" viewBox="0 0 20 20" fill="none" xmlns="http://www.w3.org/2000/svg">
<path d="M7.83128 3.41872L14.0813 9.66872C14.1691 9.75662 14.2184 9.87576 14.2184 9.99997C14.2184 10.1242 14.1691 10.2433 14.0813 10.3312L7.83128 16.5812C7.74242 16.664 7.62489 16.7091 7.50345 16.707C7.38201 16.7048 7.26615 16.6556 7.18026 16.5697C7.09438 16.4839 7.04518 16.368 7.04304 16.2466C7.0409 16.1251 7.08598 16.0076 7.16878 15.9187L13.0867 9.99997L7.16878 4.08123C7.08598 3.99237 7.0409 3.87484 7.04304 3.7534C7.04518 3.63196 7.09438 3.51609 7.18026 3.43021C7.26615 3.34433 7.38201 3.29513 7.50345 3.29299C7.62489 3.29085 7.74242 3.33592 7.83128 3.41872Z" fill="#A6A6A6"/>
</svg>
